<?xml version="1.0" encoding="utf-8"?>
<!-- Generator: Adobe Illustrator 19.0.0, SVG Export Plug-In . SVG Version: 6.00 Build 0)  -->
<svg version="1.1" id="Layer_1" xmlns="http://www.w3.org/2000/svg" xmlns:xlink="http://www.w3.org/1999/xlink" x="0px" y="0px"
	 viewBox="0 0 100 100" style="enable-background:new 0 0 100 100;" xml:space="preserve">
<path id="XMLID_108_" d="M71.1,57.3V31.6c0-3-0.2-5.1-0.6-6.4s-1.2-2.4-2.5-3.3s-3-1.4-5-1.4c-1.5,0-2.9,0.3-4.2,1
	c-1.2,0.7-2.4,1.7-3.4,3.1c-1.8-2.7-4.3-4.1-7.5-4.1c-1.6,0-3.1,0.3-4.3,1c-1.3,0.7-2.4,1.7-3.3,3.1l0.2-3.4H28.9v36.1h11.5v-25
	c0-1.7,0-2.9,0.1-3.4s0.2-1,0.6-1.4s0.8-0.6,1.3-0.6c0.8,0,1.4,0.4,1.5,1.1c0.2,0.7,0.3,2.8,0.3,6.4v5.2h0v17.7L31.3,79.5H44
	l5.9-11.3l6,11.3h12.8L55.7,57.2V39.5h0v-5.8c0-3.1,0.1-5,0.4-5.7c0.2-0.7,0.8-1.1,1.6-1.1c0.8,0,1.3,0.4,1.6,1.1
	c0.2,0.7,0.3,2.6,0.3,5.7v23.5H71.1z"/>
</svg>
